<?xml version="1.0" encoding="UTF-8"?><svg id="Camada_1" xmlns="http://www.w3.org/2000/svg" viewBox="0 0 834.73 327.83"><defs><style>.cls-1{fill:#fff;}.cls-2{fill:#ff00fd;}</style></defs><path class="cls-1" d="m92.77,138l-36.64,28.29h47.9v-3.93h-36.37l27.51-21.24c11.93-9.24,21.74-17.25,29.53-25.07v-5.72c-8.02,8.64-18.62,17.37-31.94,27.68Zm108.83-12.23h12.97v-3.93h-12.97v3.93ZM218.62,1.41c-25.56,0-45.58,19.77-45.58,45.02v.56c0,12.2,4.44,22.96,11.87,30.87h5.72c-8.47-7.36-13.66-18.28-13.66-30.87v-.56c0-23.04,18.29-41.08,41.64-41.08s41.08,17.54,41.08,40.8v.56c0,13.48-6.27,25.25-16.16,32.7v3.12h0s0,1.71,0,1.71c12.19-8,20.08-21.68,20.08-37.53v-.56c0-25.5-19.35-44.74-45.02-44.74Zm-17.01,105.79h12.97v-3.93h-12.97v3.93Zm-59.18-29.34h4.05c.83-4.51,1.24-9.33,1.24-14.55v-.56c0-18.63-6.66-34.42-19.26-45.68C115.95,5.9,98.48,0,77.94,0,40.89,0,21.77,15.92,2.91,41.6l-1.11,1.52,33.38,26.89,1.24-1.52c13.55-16.68,23.74-25.72,38.71-25.72s24.48,8.84,24.48,23.64-8.73,25.4-33.33,45.75L0,166.48v37.23h124.71v-3.93H3.93v-31.43l64.84-53.16c24.51-20.29,34.76-31.55,34.76-48.79s-10.89-27.57-28.42-27.57c-16.06,0-26.8,9-40.52,25.66L7.2,42.42C24.97,18.61,43.28,3.93,77.94,3.93c40,0,65.84,23.08,65.84,58.81v.56c0,5.24-.46,10.05-1.35,14.55Zm75.63-56.19c-12.72,0-21.94,10.29-21.94,24.48v.56c0,14.11,9.68,24.76,22.51,24.76s21.94-10.29,21.94-24.48v-.56c0-14.11-9.68-24.76-22.51-24.76Zm18.57,25.32c0,10.21-6.19,20.54-18.01,20.54s-18.57-10.73-18.57-20.82v-.56c0-10.21,6.19-20.54,18.01-20.54s18.57,10.73,18.57,20.82v.56Zm-35.02,41.86c4.04,1.48,8.39,2.42,12.97,2.74v-3.94c-4.62-.35-8.97-1.39-12.97-3.03v4.23Z"/><polygon class="cls-1" points="131.71 312.13 140.25 312.13 140.25 309.68 131.71 309.68 131.71 303.52 141.1 303.52 141.1 301.04 128.71 301.04 128.71 321.59 141.2 321.59 141.2 319.11 131.71 319.11 131.71 312.13"/><path class="cls-1" d="m162.44,312.43c0,.76,0,1.52.03,2.28s.06,1.52.1,2.28h-.07c-.26-.48-.55-.97-.88-1.47s-.66-.99-1.01-1.47l-9.36-13.01h-2.61v20.55h2.93v-10.63c0-.91,0-1.83-.03-2.74s-.06-1.83-.1-2.74h.07c.31.57.63,1.14.98,1.73.35.56.68,1.07,1.01,1.53l9.26,12.85h2.61v-20.54h-2.93s0,11.38,0,11.38Z"/><path class="cls-1" d="m178.33,305.09c.65-.65,1.4-1.12,2.25-1.4.87-.31,1.78-.46,2.74-.46.48,0,.9.03,1.27.07.39.05.76.11,1.11.2.37.09.73.21,1.08.36.37.13.76.29,1.17.46l.72-2.35c-.74-.37-1.54-.66-2.41-.88s-1.98-.33-3.33-.33c-1.44,0-2.76.24-3.98.72-1.21.45-2.27,1.14-3.16,2.05-.87.9-1.55,2-2.05,3.33-.5,1.31-.75,2.8-.75,4.47s.25,3.23.75,4.56c.52,1.3,1.22,2.4,2.09,3.29.89.89,1.93,1.56,3.13,2.02,1.19.45,2.46.68,3.81.68s2.4-.09,3.29-.26c.91-.18,1.75-.45,2.51-.82l-.68-2.41c-.7.33-1.4.58-2.12.75-.69.17-1.58.26-2.67.26-.94,0-1.82-.14-2.65-.42-.82-.3-1.55-.77-2.18-1.4-.61-.63-1.1-1.46-1.47-2.48s-.55-2.27-.55-3.75.18-2.7.55-3.72c.39-1.04.9-1.89,1.53-2.54Z"/><path class="cls-1" d="m210.62,303.42c-.85-.89-1.86-1.56-3.03-1.99-1.18-.45-2.46-.68-3.85-.68s-2.68.23-3.89.67c-1.17.45-2.19,1.13-3.06,2.02-.87.9-1.55,2-2.05,3.33-.5,1.3-.75,2.81-.75,4.53s.24,3.3.72,4.63c.48,1.3,1.14,2.4,1.99,3.29.86.87,1.89,1.53,3.06,1.99,1.18.43,2.46.65,3.85.65s2.68-.22,3.85-.68c1.2-.45,2.23-1.13,3.1-2.02.87-.89,1.55-1.99,2.05-3.29.5-1.32.75-2.84.75-4.56s-.24-3.3-.72-4.6c-.48-1.32-1.15-2.42-2.02-3.29Zm-1.02,11.51c-.33,1.02-.78,1.87-1.37,2.54-.56.67-1.24,1.17-2.02,1.5-.76.33-1.59.49-2.48.49s-1.74-.16-2.54-.49c-.78-.33-1.46-.83-2.05-1.5-.58-.67-1.05-1.52-1.4-2.54-.33-1.02-.49-2.23-.49-3.62s.17-2.59.48-3.62c.33-1.02.77-1.87,1.34-2.54.56-.67,1.24-1.17,2.02-1.5s1.62-.49,2.51-.49,1.73.16,2.51.49c.81.31,1.5.8,2.09,1.47.59.65,1.04,1.49,1.37,2.51.35,1.02.52,2.25.52,3.68,0,1.39-.16,2.6-.49,3.62Z"/><path class="cls-1" d="m234.84,312.43c0,.76.01,1.52.03,2.28s.06,1.52.1,2.28h-.07c-.26-.48-.55-.97-.88-1.47s-.66-.99-1.01-1.47l-9.36-13.01h-2.61v20.55h2.93v-10.63c0-.91-.01-1.83-.03-2.74s-.06-1.83-.1-2.74h.07c.31.57.63,1.14.98,1.73.35.56.68,1.07,1.01,1.53l9.26,12.85h2.61v-20.54h-2.93v11.38Z"/><polygon class="cls-1" points="244.26 303.58 250.55 303.58 250.55 321.58 253.55 321.58 253.55 303.58 259.97 303.58 259.97 301.04 244.26 301.04 244.26 303.58"/><path class="cls-1" d="m276.97,312.17c.52-.35.98-.75,1.37-1.21.4-.48.71-1.03.95-1.66.24-.63.36-1.34.36-2.12,0-.9-.14-1.71-.42-2.45-.28-.76-.7-1.42-1.24-1.96s-1.22-.97-2.05-1.27c-.8-.31-1.73-.46-2.8-.46h-6.71v20.56h2.84v-8.05h3.36l4.86,8.05h3.36l-5.41-8.61c.52-.22,1.03-.49,1.53-.82Zm-3.34-1.29c-.57.13-1.19.2-1.86.2h-2.48v-7.63h2.97c1.39,0,2.44.32,3.16.95.74.63,1.11,1.6,1.11,2.93,0,.68-.13,1.25-.39,1.73-.24.47-.58.87-1.01,1.17-.41.28-.91.5-1.5.65Z"/><path class="cls-1" d="m303.08,303.42c-.85-.89-1.86-1.56-3.03-1.99-1.18-.45-2.46-.68-3.85-.68s-2.69.23-3.9.67c-1.17.45-2.19,1.13-3.06,2.02-.87.9-1.55,2-2.05,3.33-.5,1.3-.75,2.81-.75,4.53s.24,3.3.72,4.63c.48,1.3,1.14,2.4,1.99,3.29.87.87,1.9,1.53,3.07,1.99,1.18.43,2.46.65,3.85.65s2.68-.22,3.85-.68c1.2-.45,2.23-1.13,3.1-2.02.87-.89,1.55-1.99,2.05-3.29.5-1.32.75-2.84.75-4.56s-.24-3.3-.72-4.6c-.48-1.32-1.15-2.42-2.02-3.29Zm-1.02,11.51c-.33,1.02-.78,1.87-1.37,2.54-.56.67-1.24,1.17-2.02,1.5-.76.33-1.59.49-2.48.49s-1.74-.16-2.54-.49c-.78-.33-1.46-.83-2.05-1.5-.58-.67-1.05-1.52-1.4-2.54-.33-1.02-.49-2.23-.49-3.62s.16-2.59.48-3.62c.33-1.02.77-1.87,1.34-2.54.56-.67,1.24-1.17,2.02-1.5s1.62-.49,2.51-.49,1.73.16,2.51.49c.81.31,1.5.8,2.09,1.47.59.65,1.04,1.49,1.37,2.51.35,1.02.52,2.25.52,3.68,0,1.39-.16,2.6-.49,3.62Z"/><path class="cls-1" d="m320.86,310.21l-2.05-.65c-1.22-.37-2.1-.8-2.64-1.3-.52-.5-.78-1.16-.78-1.99,0-.98.36-1.74,1.08-2.28.71-.55,1.69-.82,2.93-.82.78,0,1.54.09,2.28.29.76.17,1.61.48,2.54.91l.72-2.48c-.91-.43-1.84-.73-2.77-.88-.93-.17-1.9-.26-2.9-.26-2.26,0-3.99.53-5.2,1.59-1.17,1.04-1.76,2.47-1.76,4.27,0,1.41.41,2.53,1.21,3.36.81.83,1.96,1.48,3.46,1.96l2.05.65c.76.24,1.39.49,1.89.75s.89.55,1.17.85c.3.31.51.63.62.98.13.33.2.69.2,1.08,0,1.06-.41,1.87-1.24,2.41-.83.55-1.83.82-3,.82-.97,0-1.91-.11-2.8-.33s-1.81-.55-2.74-1.01l-.72,2.45c1.07.5,2.13.84,3.2,1.01,1.09.19,2.16.29,3.2.29s2-.13,2.87-.39c.87-.28,1.62-.67,2.25-1.17.65-.52,1.15-1.14,1.5-1.86.37-.74.55-1.56.55-2.45,0-1.26-.39-2.39-1.17-3.39-.77-1.02-2.08-1.82-3.95-2.41Z"/><path class="cls-1" d="m360.9,325.13c-.48.15-.94.23-1.37.23-.74,0-1.41-.09-2.02-.26-.61-.15-1.19-.32-1.76-.52-.57-.19-1.13-.38-1.7-.55-.54-.15-1.14-.23-1.79-.23l4.43-2.48c2.08-1.17,3.6-2.56,4.53-4.17s1.4-3.56,1.4-5.84c0-1.76-.24-3.3-.72-4.6-.48-1.32-1.15-2.42-2.02-3.29-.85-.89-1.86-1.56-3.03-1.99-1.18-.45-2.46-.68-3.85-.68s-2.68.23-3.88.68c-1.17.45-2.19,1.13-3.06,2.02-.87.9-1.55,2-2.05,3.33-.5,1.3-.75,2.81-.75,4.53,0,1.54.18,2.92.55,4.14.39,1.22.93,2.26,1.6,3.13.7.85,1.52,1.55,2.45,2.09.95.52,2.01.87,3.16,1.04l-5.02,2.9,1.24,2.25c.56-.33,1.12-.58,1.66-.75.57-.17,1.13-.26,1.7-.26.72,0,1.43.09,2.15.29.71.21,1.44.44,2.18.68.74.26,1.48.48,2.22.68.76.22,1.52.33,2.28.33.63,0,1.3-.09,2.02-.29.74-.2,1.41-.49,2.02-.88l-1.17-2.18c-.43.3-.9.52-1.4.65Zm-10.67-6.02c-.76-.35-1.42-.87-1.99-1.57-.54-.7-.97-1.56-1.27-2.58-.31-1.04-.46-2.26-.46-3.65s.17-2.59.48-3.62c.33-1.02.77-1.87,1.34-2.54.56-.67,1.24-1.17,2.02-1.5s1.62-.49,2.51-.49,1.73.16,2.51.49c.81.31,1.5.8,2.09,1.47.59.65,1.04,1.49,1.37,2.51.35,1.02.52,2.25.52,3.68,0,1.35-.18,2.55-.55,3.59-.34,1.02-.82,1.89-1.43,2.61-.61.7-1.32,1.23-2.12,1.6-.8.35-1.65.52-2.54.52s-1.72-.17-2.48-.52Z"/><path class="cls-1" d="m383.09,313.72c0,1.72-.41,3.1-1.24,4.14-.81,1.05-2.09,1.57-3.85,1.57s-3.08-.47-3.88-1.4c-.81-.94-1.21-2.5-1.21-4.7v-12.29h-2.99v12.43c0,2.93.71,5.07,2.12,6.42,1.44,1.33,3.43,1.99,5.97,1.99s4.5-.67,5.93-2.02,2.15-3.43,2.15-6.23v-12.59h-3v12.68Z"/><polygon class="cls-1" points="397.62 312.13 406.16 312.13 406.16 309.68 397.62 309.68 397.62 303.52 407.01 303.52 407.01 301.04 394.62 301.04 394.62 321.59 407.11 321.59 407.11 319.11 397.62 319.11 397.62 312.13"/><path class="cls-1" d="m441.39,301.04l-4.21,13.11c-.24.69-.45,1.32-.65,1.89-.17.56-.35,1.15-.52,1.76h-.07c-.17-.61-.35-1.2-.55-1.79-.2-.61-.4-1.23-.62-1.86l-4.3-13.11h-3.91l-1.76,20.56h2.93l.78-10.89c.09-1.07.16-2.13.23-3.2.09-1.07.16-2.13.2-3.2h.07c.3,1.11.61,2.18.91,3.2.3,1,.64,2.05,1.01,3.16l3.62,10.92h2.74l3.62-10.89c.35-1.07.68-2.13.98-3.2.33-1.07.65-2.13.95-3.2h.07c.04,1.09.09,2.16.13,3.23.05,1.04.11,2.09.2,3.16l.85,10.89h3l-1.79-20.54h-3.91Z"/><path class="cls-1" d="m468.29,313.72c0,1.72-.41,3.1-1.24,4.14-.81,1.05-2.09,1.57-3.85,1.57s-3.08-.47-3.88-1.4c-.81-.94-1.21-2.5-1.21-4.7v-12.29h-2.99v12.43c0,2.93.71,5.07,2.12,6.42,1.44,1.33,3.43,1.99,5.97,1.99s4.5-.67,5.93-2.02,2.15-3.43,2.15-6.23v-12.59h-3v12.68Z"/><polygon class="cls-1" points="482.81 301.04 479.81 301.04 479.81 321.58 491.58 321.58 491.58 319.04 482.81 319.04 482.81 301.04"/><polygon class="cls-1" points="493.38 303.58 499.67 303.58 499.67 321.58 502.67 321.58 502.67 303.58 509.09 303.58 509.09 301.04 493.38 301.04 493.38 303.58"/><rect class="cls-1" x="515.58" y="301.04" width="3" height="20.54"/><path class="cls-1" d="m538.96,302.67c-.63-.55-1.38-.95-2.25-1.21-.87-.28-1.83-.42-2.9-.42h-6.46v20.55h3v-7.96h3.07c1.11,0,2.12-.13,3.03-.39s1.71-.65,2.38-1.17c.68-.53,1.2-1.18,1.57-1.96.37-.81.55-1.75.55-2.84,0-1-.17-1.88-.52-2.64-.35-.79-.84-1.44-1.47-1.96Zm-1.57,6.59c-.28.5-.67.89-1.17,1.17-.48.29-1.06.48-1.76.59s-1.45.16-2.25.16h-1.86v-7.73h2.77c.59,0,1.16.07,1.73.2s1.07.35,1.5.65c.43.31.78.71,1.04,1.21.28.47.42,1.07.42,1.79,0,.79-.14,1.44-.42,1.96Z"/><polygon class="cls-1" points="551 301.04 548 301.04 548 321.58 559.77 321.58 559.77 319.04 551 319.04 551 301.04"/><rect class="cls-1" x="566.46" y="301.04" width="3" height="20.54"/><path class="cls-1" d="m582.43,305.09c.65-.65,1.4-1.12,2.25-1.4.87-.31,1.78-.46,2.74-.46.48,0,.9.03,1.27.07.39.05.76.11,1.11.2.37.09.73.21,1.08.36.37.13.76.29,1.17.46l.72-2.35c-.74-.37-1.54-.66-2.41-.88s-1.98-.33-3.33-.33c-1.44,0-2.76.24-3.98.72-1.21.45-2.27,1.14-3.16,2.05-.87.9-1.55,2-2.05,3.33-.5,1.31-.75,2.8-.75,4.47s.25,3.23.75,4.56c.52,1.3,1.22,2.4,2.09,3.29.89.89,1.93,1.56,3.13,2.02,1.19.45,2.46.68,3.81.68s2.4-.09,3.29-.26c.91-.18,1.75-.45,2.51-.82l-.68-2.41c-.7.33-1.4.58-2.12.75-.69.17-1.58.26-2.67.26-.94,0-1.82-.14-2.65-.42-.82-.3-1.55-.77-2.18-1.4-.61-.63-1.1-1.46-1.47-2.48s-.55-2.27-.55-3.75.18-2.7.55-3.72c.39-1.04.9-1.89,1.53-2.54Z"/><path class="cls-1" d="m605.77,301.04l-8.3,20.54h3.1l2.22-5.71h8.45l2.25,5.71h3.13l-8.18-20.54h-2.67Zm4.6,12.46h-6.75l1.4-3.55c.37-.98.71-1.89,1.04-2.74.33-.85.65-1.73.95-2.64h.07c.3.91.61,1.8.91,2.67.3.87.64,1.78,1.01,2.71l1.37,3.55Z"/><path class="cls-1" d="m638.89,301.04l-4.21,13.11c-.24.69-.45,1.32-.65,1.89-.17.56-.35,1.15-.52,1.76h-.07c-.17-.61-.35-1.2-.55-1.79-.2-.61-.4-1.23-.62-1.86l-4.3-13.11h-3.91l-1.76,20.56h2.93l.78-10.89c.09-1.07.16-2.13.23-3.2.09-1.07.16-2.13.2-3.2h.07c.3,1.11.61,2.18.91,3.2.3,1,.64,2.05,1.01,3.16l3.62,10.92h2.74l3.62-10.89c.35-1.07.68-2.13.98-3.2.33-1.07.65-2.13.95-3.2h.07c.04,1.09.09,2.16.13,3.23.05,1.04.11,2.09.2,3.16l.85,10.89h3l-1.79-20.54h-3.91Z"/><path class="cls-1" d="m667.88,305.09c.65-.65,1.4-1.12,2.25-1.4.87-.31,1.78-.46,2.74-.46.48,0,.9.03,1.27.07.39.05.76.11,1.11.2.37.09.73.21,1.08.36.37.13.76.29,1.17.46l.72-2.35c-.74-.37-1.54-.66-2.41-.88s-1.98-.33-3.33-.33c-1.44,0-2.76.24-3.98.72-1.21.45-2.27,1.14-3.16,2.05-.87.9-1.55,2-2.05,3.33-.5,1.31-.75,2.8-.75,4.47s.25,3.23.75,4.56c.52,1.3,1.22,2.4,2.09,3.29.89.89,1.93,1.56,3.13,2.02,1.19.45,2.46.68,3.81.68s2.4-.09,3.29-.26c.91-.18,1.75-.45,2.51-.82l-.68-2.41c-.7.33-1.4.58-2.12.75-.69.17-1.58.26-2.67.26-.94,0-1.82-.14-2.65-.42-.82-.3-1.55-.77-2.18-1.4-.61-.63-1.1-1.46-1.47-2.48s-.55-2.27-.55-3.75.18-2.7.55-3.72c.39-1.04.9-1.89,1.53-2.54Z"/><path class="cls-1" d="m700.17,303.42c-.85-.89-1.86-1.56-3.03-1.99-1.18-.45-2.46-.68-3.85-.68s-2.68.23-3.89.67c-1.18.45-2.2,1.13-3.07,2.02-.87.9-1.55,2-2.05,3.33-.5,1.3-.75,2.81-.75,4.53s.24,3.3.72,4.63c.48,1.3,1.14,2.4,1.99,3.29.87.87,1.9,1.53,3.07,1.99,1.18.43,2.46.65,3.85.65s2.68-.22,3.85-.68c1.2-.45,2.23-1.13,3.1-2.02s1.55-1.99,2.05-3.29c.5-1.32.75-2.84.75-4.56s-.24-3.3-.72-4.6c-.48-1.32-1.15-2.42-2.02-3.29Zm-1.01,11.51c-.33,1.02-.78,1.87-1.37,2.54-.56.67-1.24,1.17-2.02,1.5-.76.33-1.59.49-2.48.49s-1.74-.16-2.54-.49c-.78-.33-1.46-.83-2.05-1.5-.58-.67-1.05-1.52-1.4-2.54-.33-1.02-.49-2.23-.49-3.62s.16-2.59.48-3.62c.33-1.02.77-1.87,1.34-2.54.56-.67,1.24-1.17,2.02-1.5s1.62-.49,2.51-.49,1.73.16,2.51.49c.81.31,1.5.8,2.09,1.47.59.65,1.04,1.49,1.37,2.51.35,1.02.52,2.25.52,3.68,0,1.39-.16,2.6-.49,3.62Z"/><path class="cls-1" d="m724.39,312.43c0,.76.01,1.52.03,2.28s.06,1.52.1,2.28h-.07c-.26-.48-.55-.97-.88-1.47-.32-.5-.66-.99-1.01-1.47l-9.36-13.01h-2.61v20.55h2.93v-10.63c0-.91-.01-1.83-.03-2.74s-.06-1.83-.1-2.74h.07c.31.57.63,1.14.98,1.73.35.56.68,1.07,1.01,1.53l9.26,12.85h2.61v-20.54h-2.93v11.38Z"/><polygon class="cls-1" points="739.09 312.13 747.63 312.13 747.63 309.68 739.09 309.68 739.09 303.52 748.48 303.52 748.48 301.04 736.09 301.04 736.09 321.59 748.58 321.59 748.58 319.11 739.09 319.11 739.09 312.13"/><polygon class="cls-1" points="770.67 301.04 767.38 301.04 762.23 309.06 757.31 301.04 753.89 301.04 760.44 311.15 753.59 321.58 756.88 321.58 762.23 313.23 767.54 321.58 771 321.58 763.92 311.15 770.67 301.04"/><path class="cls-1" d="m791.9,303.42c-.85-.89-1.86-1.56-3.03-1.99-1.18-.45-2.46-.68-3.85-.68s-2.69.23-3.9.67c-1.17.45-2.19,1.13-3.06,2.02-.87.9-1.55,2-2.05,3.33-.5,1.3-.75,2.81-.75,4.53s.24,3.3.72,4.63c.48,1.3,1.14,2.4,1.99,3.29.87.87,1.9,1.53,3.07,1.99,1.18.43,2.46.65,3.85.65s2.68-.22,3.85-.68c1.2-.45,2.23-1.13,3.1-2.02s1.55-1.99,2.05-3.29c.5-1.32.75-2.84.75-4.56s-.24-3.3-.72-4.6c-.48-1.32-1.15-2.42-2.02-3.29Zm-1.02,11.51c-.33,1.02-.78,1.87-1.37,2.54-.56.67-1.24,1.17-2.02,1.5-.76.33-1.59.49-2.48.49s-1.74-.16-2.54-.49c-.78-.33-1.46-.83-2.05-1.5-.58-.67-1.05-1.52-1.4-2.54-.33-1.02-.49-2.23-.49-3.62s.16-2.59.48-3.62c.33-1.02.77-1.87,1.34-2.54.56-.67,1.24-1.17,2.02-1.5s1.62-.49,2.51-.49,1.73.16,2.51.49c.81.31,1.5.8,2.09,1.47.59.65,1.04,1.49,1.37,2.51.35,1.02.52,2.25.52,3.68,0,1.39-.16,2.6-.49,3.62Z"/><path class="cls-1" d="m781.83,297.33c.2-.28.52-.42.98-.42.26,0,.55.08.85.23.31.13.63.29.98.49.35.17.72.34,1.11.49.41.13.84.2,1.3.2s.84-.09,1.17-.29c.35-.22.63-.49.85-.82.24-.35.41-.73.52-1.14.11-.44.16-.88.16-1.34h-1.63c-.04.37-.16.71-.36,1.04-.17.33-.48.49-.91.49-.35,0-.67-.08-.98-.23s-.62-.32-.95-.49c-.3-.17-.64-.34-1.01-.49-.35-.15-.75-.23-1.21-.23-1,0-1.72.34-2.18,1.04-.43.69-.65,1.54-.65,2.54h0s1.63,0,1.63,0c.05-.44.16-.8.33-1.08Z"/><polygon class="cls-1" points="805.32 312.13 813.86 312.13 813.86 309.68 805.32 309.68 805.32 303.52 814.71 303.52 814.71 301.04 802.32 301.04 802.32 321.59 814.81 321.59 814.81 319.11 805.32 319.11 805.32 312.13"/><path class="cls-1" d="m829.6,310.21l-2.05-.65c-1.22-.37-2.1-.8-2.64-1.3-.52-.5-.78-1.16-.78-1.99,0-.98.36-1.74,1.08-2.28.71-.55,1.69-.82,2.93-.82.78,0,1.54.09,2.28.29.76.17,1.61.48,2.54.91l.72-2.48c-.91-.43-1.84-.73-2.77-.88-.93-.17-1.9-.26-2.9-.26-2.26,0-3.99.53-5.2,1.59-1.17,1.04-1.76,2.47-1.76,4.27,0,1.41.41,2.53,1.21,3.36.81.83,1.96,1.48,3.46,1.96l2.05.65c.76.24,1.39.49,1.89.75s.89.55,1.17.85c.3.31.51.63.62.98.13.33.2.69.2,1.08,0,1.06-.41,1.87-1.24,2.41-.83.55-1.83.82-3,.82-.97,0-1.91-.11-2.8-.33s-1.81-.55-2.74-1.01l-.72,2.45c1.07.5,2.13.84,3.2,1.01,1.09.19,2.16.29,3.2.29s2-.13,2.87-.39c.87-.28,1.62-.67,2.25-1.17.65-.52,1.15-1.14,1.5-1.86.37-.74.55-1.56.55-2.45,0-1.26-.39-2.39-1.17-3.39-.77-1.02-2.08-1.82-3.95-2.41Z"/><rect class="cls-1" x="700.26" y="183.02" width="20.68" height="37.18"/><path class="cls-1" d="m745.91,202.14c-1.77-3.05-3.9-5.82-6.39-8.32-.57-.57-1.16-1.11-1.75-1.65l-13.29,14.92c.22.21.44.41.65.63,1.8,1.92,3.19,4.18,4.19,6.76s1.5,5.33,1.5,8.26-.5,5.72-1.5,8.28c-1,2.57-2.39,4.8-4.19,6.72-1.79,1.91-3.93,3.4-6.4,4.49-2.47,1.09-5.19,1.63-8.14,1.63s-5.66-.54-8.11-1.63c-2.46-1.09-4.59-2.58-6.39-4.49-1.79-1.91-3.19-4.15-4.18-6.72-1-2.56-1.5-5.32-1.5-8.28s.5-5.67,1.5-8.26c.99-2.58,2.39-4.84,4.18-6.76.18-.19.38-.37.57-.55l-13.34-14.9c-.56.5-1.12,1.02-1.65,1.55-2.48,2.5-4.61,5.26-6.39,8.32-1.78,3.05-3.16,6.31-4.12,9.78-.96,3.47-1.44,7.1-1.44,10.88s.49,7.4,1.44,10.88c.97,3.47,2.34,6.72,4.12,9.73,1.77,3.01,3.91,5.75,6.39,8.23,2.48,2.48,5.24,4.6,8.27,6.39,3.04,1.78,6.29,3.16,9.76,4.12,3.48.97,7.11,1.44,10.88,1.44s7.37-.48,10.86-1.44c3.5-.96,6.76-2.33,9.79-4.12,3.04-1.78,5.8-3.91,8.29-6.39,2.5-2.48,4.63-5.22,6.39-8.23s3.14-6.26,4.12-9.73c.97-3.48,1.47-7.1,1.47-10.88s-.5-7.4-1.47-10.88c-.98-3.48-2.36-6.74-4.12-9.78Z"/><polygon class="cls-1" points="814.52 183.02 814.52 227.87 786.49 183.02 764.76 183.02 764.76 262.4 784.66 262.4 784.75 214.13 813.99 262.4 834.73 262.4 834.73 183.02 814.52 183.02"/><path class="cls-2" d="m366.89,155.11c2.14-2.22,3.85-4.81,5.12-7.75,1.27-2.95,1.9-6.06,1.9-9.35,0-3.68-.76-7.17-2.28-10.45-1.52-3.29-3.57-6.13-6.17-8.51,1.55-1.84,2.75-3.93,3.6-6.26.86-2.33,1.28-4.85,1.28-7.56,0-3.25-.62-6.29-1.84-9.13-1.23-2.84-2.9-5.31-5.01-7.43-2.12-2.11-4.59-3.78-7.4-4.98-2.82-1.21-5.82-1.82-9-1.82h-38.37v80.49h41.57c3.18,0,6.21-.65,9.09-1.95,2.84-1.32,5.36-3.08,7.51-5.3Zm-37.21-57.26h11.63c1.2,0,2.3.2,3.32.62,1.01.41,1.88.99,2.61,1.71.72.72,1.28,1.55,1.68,2.49s.59,1.96.59,3.04c0,1.16-.2,2.21-.62,3.17-.42.96-.99,1.79-1.71,2.5-.73.7-1.61,1.24-2.64,1.62-1.03.38-2.17.56-3.4.56h-11.46v-15.71Zm22.08,42.7c-.41,1.09-1.01,2.06-1.76,2.9-.76.85-1.65,1.53-2.66,2.03-1.01.51-2.12.76-3.31.76h-14.35v-18.1h14.34c1.19,0,2.3.27,3.33.81,1.03.55,1.92,1.24,2.66,2.09s1.32,1.82,1.74,2.9c.41,1.08.63,2.16.63,3.25,0,1.16-.2,2.28-.62,3.36Z"/><path class="cls-2" d="m176.62,159.96s.01.01.01.02v2.36h20.97v-80.48h-20.97v2.37s-.01,0-.01.02v25.74h-26.94v-28.13h-20.97v80.49h20.97v-33.18h26.94v30.79Z"/><path class="cls-2" d="m276.83,156.25c3.15-2.62,5.65-6.08,7.51-10.38s2.8-9.61,2.8-15.93v-48.08h-20.97v2.37s0,0,0,.02v45.99c0,2.39-.35,4.51-1.06,6.35-.71,1.84-1.67,3.39-2.88,4.64-1.21,1.24-2.62,2.19-4.23,2.81-1.61.64-3.32.95-5.13.95s-3.41-.27-5.03-.81c-1.61-.55-3.03-1.4-4.23-2.58-1.22-1.18-2.2-2.7-2.94-4.56s-1.11-4.13-1.11-6.81v-45.98s0,0,0-.02v-2.37h-20.97v48.08c0,6.21.94,11.46,2.8,15.75,1.86,4.28,4.36,7.75,7.51,10.4,3.14,2.66,6.79,4.58,10.95,5.75,4.15,1.17,8.51,1.76,13.06,1.76s8.89-.56,13.03-1.7c4.13-1.15,7.77-3.03,10.91-5.65Z"/><rect class="cls-2" x="108.03" y="162.34" width="20.68" height="20.68"/><path class="cls-2" d="m418.46,211.92c-.98-3.47-2.36-6.73-4.12-9.78-1.77-3.05-3.9-5.82-6.39-8.32-2.49-2.49-5.25-4.62-8.29-6.39-3.03-1.77-6.29-3.13-9.79-4.12-3.49-.98-7.11-1.47-10.86-1.47s-7.4.49-10.88,1.47c-3.47.98-6.73,2.35-9.76,4.12-3.03,1.77-5.79,3.9-8.27,6.39-2.48,2.5-4.61,5.26-6.39,8.32-1.78,3.05-3.16,6.31-4.12,9.78-.96,3.47-1.44,7.1-1.44,10.88s.49,7.4,1.44,10.88c.97,3.47,2.34,6.72,4.12,9.73,1.77,3.01,3.91,5.75,6.39,8.23s5.24,4.6,8.27,6.39c3.04,1.78,6.29,3.16,9.76,4.12,3.48.97,7.11,1.44,10.88,1.44s7.37-.48,10.86-1.44c3.5-.96,6.76-2.33,9.79-4.12,3.04-1.78,5.8-3.91,8.29-6.39,2.5-2.48,4.63-5.22,6.39-8.23s3.14-6.26,4.12-9.73c.97-3.48,1.47-7.1,1.47-10.88s-.5-7.41-1.47-10.88Zm-20.72,19.1c-1,2.57-2.39,4.8-4.19,6.72-1.79,1.91-3.93,3.4-6.4,4.49-2.47,1.09-5.19,1.63-8.14,1.63s-5.66-.54-8.11-1.63c-2.46-1.09-4.58-2.58-6.39-4.49-1.79-1.91-3.19-4.15-4.18-6.72-1-2.56-1.5-5.32-1.5-8.28s.5-5.67,1.5-8.26c.99-2.58,2.39-4.84,4.18-6.76,1.8-1.92,3.92-3.45,6.39-4.55,2.45-1.1,5.16-1.65,8.11-1.65s5.67.56,8.14,1.65c2.47,1.1,4.61,2.63,6.4,4.55,1.8,1.92,3.19,4.18,4.19,6.76s1.5,5.33,1.5,8.26-.5,5.72-1.5,8.28Z"/><rect class="cls-2" x="128.71" y="214.04" width="20.68" height="48.36"/><polygon class="cls-2" points="304.2 227.87 276.16 183.02 254.43 183.02 254.43 262.4 274.34 262.4 274.43 214.13 303.67 262.4 324.4 262.4 324.4 183.02 304.2 183.02 304.2 227.87"/><rect class="cls-2" x="128.71" y="183.02" width="20.97" height="20.68"/><rect class="cls-2" x="640.27" y="214.04" width="20.68" height="48.36"/><rect class="cls-2" x="640.27" y="183.02" width="20.68" height="20.68"/><polygon class="cls-2" points="216.59 227.87 188.56 183.02 166.83 183.02 166.83 262.4 186.73 262.4 186.82 214.13 216.06 262.4 236.8 262.4 236.8 183.02 216.59 183.02 216.59 227.87"/><path class="cls-2" d="m498.51,185.42l.92-2.39h-22.27l-1.78,5.32c-1.04,2.96-2.07,5.92-3.04,8.87-.98,2.98-1.95,5.97-2.91,8.96l-9.19,27.53-16.92-50.68h-22.11l.91,2.39v.02l27.42,71.79h0l1.98,5.19h17.38l1.26-3.27c.04-.09.08-.17.12-.27.24-.6.46-1.16.64-1.65l27.59-71.79v-.02h0Z"/><path class="cls-2" d="m538.96,183.02h-17.95l-30.66,79.38h20.5l4.86-12.83h28.39l4.7,12.83h20.81l-30.65-79.38Zm-17.25,49.39l8.24-24.43,8.18,24.43h-16.42Z"/><polygon class="cls-2" points="564.53 183.02 564.53 203.7 585.48 203.7 585.48 262.4 606.16 262.4 606.16 203.7 627.12 203.7 627.12 183.02 564.53 183.02"/></svg>